<svg width="49" height="49" viewBox="0 0 49 49" fill="none" xmlns="http://www.w3.org/2000/svg">
<g clip-path="url(#clip0_2622_20485)">
<path fill-rule="evenodd" clip-rule="evenodd" d="M24.1601 1.28308C16.5468 1.28308 11.1377 7.48031 10.2365 13.9503C7.78752 14.0961 5.62508 15.0164 3.94559 16.5623C1.67351 18.6537 0.5 21.6892 0.5 24.8904C0.5 27.8654 1.40243 30.6774 3.42845 32.7565C5.46812 34.8496 8.36387 35.9098 11.7735 35.9098H13.2718C13.2931 35.8772 13.3146 35.8447 13.3362 35.8122L13.3578 35.7799L13.3802 35.7483C14.0502 34.8024 14.8416 33.9684 15.75 33.2531C15.8056 33.2074 15.8617 33.1623 15.9181 33.1177C15.4299 31.9839 15.1883 30.7427 15.1883 29.4243C15.1883 28.173 15.4276 26.9606 15.9139 25.8113C16.3837 24.7009 17.04 23.7071 17.8883 22.8588C18.7544 21.9927 19.7592 21.3153 20.887 20.8382C22.0363 20.3519 23.2487 20.1125 24.5 20.1125C25.7513 20.1125 26.9637 20.3519 28.113 20.8382C29.232 21.3116 30.2245 21.9865 31.0659 22.8584C31.9378 23.6998 32.6127 24.6923 33.0861 25.8113C33.5724 26.9606 33.8118 28.173 33.8118 29.4243C33.8118 30.6756 33.5724 31.8881 33.0861 33.0373L33.0785 33.0554L33.0706 33.0733C34.0442 33.8177 34.8984 34.7176 35.6286 35.7608C35.667 35.8156 35.7049 35.8707 35.7423 35.926C42.3765 35.7441 48.3499 30.7533 48.3499 22.8333C48.3499 15.7506 43.288 10.3077 37.194 9.73203C34.7512 4.68061 30.2167 1.28308 24.1601 1.28308Z" fill="url(#paint0_radial_2622_20485)"/>
<path d="M29.0967 34.2975C30.8236 34.9759 32.2267 36.0861 33.306 37.6279C34.3853 39.1698 34.9249 40.9121 34.9249 42.8548V45.4914C34.9249 45.8614 34.7862 46.1698 34.5086 46.4165C34.2619 46.6632 33.969 46.7865 33.6298 46.7865H30.9932C30.6232 46.7865 30.2994 46.6632 30.0218 46.4165C29.7751 46.1698 29.6518 45.8614 29.6518 45.4914C29.6518 45.1213 29.7751 44.813 30.0218 44.5663C30.2994 44.2887 30.6232 44.15 30.9932 44.15H32.2884V42.8548C32.2884 41.9605 32.1188 41.1125 31.7796 40.3107C31.4403 39.509 30.9624 38.8151 30.3456 38.2292C29.7597 37.6125 29.0659 37.1345 28.2641 36.7953C27.4932 36.4561 26.6452 36.2865 25.7201 36.2865H23.1298C22.2047 36.2865 21.3412 36.4561 20.5395 36.7953C19.7685 37.1345 19.0747 37.6125 18.458 38.2292C17.8721 38.8151 17.4095 39.509 17.0703 40.3107C16.7311 41.1125 16.5615 41.9605 16.5615 42.8548V44.15H17.8566C18.2267 44.15 18.5351 44.2887 18.7818 44.5663C19.0285 44.813 19.1518 45.1213 19.1518 45.4914C19.1518 45.8614 19.0285 46.1698 18.7818 46.4165C18.5351 46.6632 18.2267 46.7865 17.8566 46.7865H15.2201C14.8809 46.7865 14.5725 46.6632 14.295 46.4165C14.0483 46.1698 13.9249 45.8614 13.9249 45.4914V42.8548C13.9249 41.868 14.0637 40.9429 14.3412 40.0795C14.6496 39.1852 15.0505 38.368 15.5439 37.6279C16.0681 36.8878 16.6848 36.2403 17.3941 35.6852C18.1033 35.0993 18.8897 34.6367 19.7531 34.2975C18.4888 33.0949 17.8566 31.5684 17.8566 29.7182C17.8566 28.8239 18.0262 27.9759 18.3655 27.1741C18.7047 26.3724 19.1672 25.6785 19.7531 25.0926C20.3699 24.4759 21.0791 23.9979 21.8809 23.6587C22.6826 23.3195 23.5307 23.1499 24.4249 23.1499C25.3192 23.1499 26.1672 23.3195 26.969 23.6587C27.7707 23.9979 28.4646 24.4759 29.0505 25.0926C29.6672 25.6785 30.1452 26.3724 30.4844 27.1741C30.8236 27.9759 30.9932 28.8239 30.9932 29.7182C30.9932 30.6125 30.8236 31.4605 30.4844 32.2623C30.1452 33.0332 29.6826 33.7116 29.0967 34.2975ZM24.4249 25.7865C23.3456 25.7865 22.4205 26.1719 21.6496 26.9429C20.8787 27.7138 20.4932 28.6389 20.4932 29.7182C20.4932 30.7975 20.8787 31.7226 21.6496 32.4935C22.4205 33.2645 23.3456 33.6499 24.4249 33.6499C25.5042 33.6499 26.4293 33.2645 27.2003 32.4935C27.9712 31.7226 28.3566 30.7975 28.3566 29.7182C28.3566 28.6389 27.9712 27.7138 27.2003 26.9429C26.4293 26.1719 25.5042 25.7865 24.4249 25.7865Z" fill="url(#paint1_radial_2622_20485)"/>
</g>
<defs>
<radialGradient id="paint0_radial_2622_20485" cx="0" cy="0" r="1" gradientUnits="userSpaceOnUse" gradientTransform="translate(7.92027 7.96433) rotate(43.8779) scale(45.9598 86.7763)">
<stop stop-color="#0195FF"/>
<stop offset="1" stop-color="#1147E9"/>
</radialGradient>
<radialGradient id="paint1_radial_2622_20485" cx="0" cy="0" r="1" gradientUnits="userSpaceOnUse" gradientTransform="translate(7.90946 8.12835) rotate(43.5601) scale(45.9959 41.8614)">
<stop stop-color="#1348FF"/>
<stop offset="1" stop-color="#06238D"/>
</radialGradient>
<clipPath id="clip0_2622_20485">
<rect width="48" height="48" fill="white" transform="translate(0.5 0.0349121)"/>
</clipPath>
</defs>
</svg>
